<svg xmlns="http://www.w3.org/2000/svg" width="102.182" height="95.15" viewBox="0 0 102.182 95.15">
  <g id="Group_93" data-name="Group 93" transform="translate(0 -17.047)">
    <path id="Path_248" data-name="Path 248" d="M100.467,60.046,84.981,44.559V26.67a5.857,5.857,0,0,0-11.714,0v6.176L61.737,21.315a15.408,15.408,0,0,0-21.3.01L1.715,60.046A5.858,5.858,0,1,0,10,68.329L48.718,29.607a3.458,3.458,0,0,1,4.739,0L92.181,68.329a5.858,5.858,0,1,0,8.286-8.283Z" fill="#fff"/>
    <path id="Path_249" data-name="Path 249" d="M107.6,128.591a2.875,2.875,0,0,0-4.068,0L69.47,162.64a2.883,2.883,0,0,0-.843,2.037v24.834a10.553,10.553,0,0,0,10.552,10.552H96.042V173.949H115.08v26.115h16.863A10.553,10.553,0,0,0,142.5,189.512V164.677a2.872,2.872,0,0,0-.843-2.037Z" transform="translate(-54.471 -87.868)" fill="#fff"/>
  </g>
</svg>
