<svg xmlns="http://www.w3.org/2000/svg" xmlns:xlink="http://www.w3.org/1999/xlink" width="79.384" height="95.152" viewBox="0 0 79.384 95.152">
  <defs>
    <linearGradient id="linear-gradient" x1="0.5" x2="0.5" y2="1" gradientUnits="objectBoundingBox">
      <stop offset="0" stop-color="#68b945"/>
      <stop offset="1" stop-color="#2c62ad"/>
    </linearGradient>
  </defs>
  <path id="Path_252" data-name="Path 252" d="M39.091,45.834a22.174,22.174,0,0,0,16.2-6.714A22.173,22.173,0,0,0,62,22.92,22.177,22.177,0,0,0,55.29,6.72,22.179,22.179,0,0,0,39.091,0a22.173,22.173,0,0,0-16.2,6.713,22.176,22.176,0,0,0-6.714,16.2,22.174,22.174,0,0,0,6.715,16.2,22.18,22.18,0,0,0,16.2,6.721Zm40.1,27.331a56.606,56.606,0,0,0-.771-6.012,47.334,47.334,0,0,0-1.479-6.045,29.859,29.859,0,0,0-2.485-5.638,21.274,21.274,0,0,0-3.747-4.883A16.526,16.526,0,0,0,65.326,47.2a18.608,18.608,0,0,0-6.872-1.243c-.971,0-1.911.4-3.725,1.58q-1.934,1.26-3.88,2.5a22.228,22.228,0,0,1-5.021,2.212,19.5,19.5,0,0,1-12.281,0,22.19,22.19,0,0,1-5.017-2.211c-1.444-.923-2.75-1.765-3.884-2.5-1.812-1.181-2.752-1.58-3.723-1.58A18.577,18.577,0,0,0,14.052,47.2,16.508,16.508,0,0,0,8.67,50.588,21.276,21.276,0,0,0,4.924,55.47a29.926,29.926,0,0,0-2.485,5.638A47.449,47.449,0,0,0,.961,67.153,56.41,56.41,0,0,0,.19,73.167Q0,75.972,0,78.786c0,4.967,1.579,8.988,4.692,11.953,3.075,2.926,7.144,4.411,12.092,4.411H62.6c4.948,0,9.015-1.484,12.091-4.411,3.114-2.963,4.693-6.985,4.693-11.954,0-1.917-.065-3.808-.192-5.62Zm0,0" transform="translate(0 0.002)" fill="url(#linear-gradient)"/>
</svg>
